<svg version="1.1" id="Layer_1" xmlns="http://www.w3.org/2000/svg" xmlns:xlink="http://www.w3.org/1999/xlink" x="0px" y="0px"
	 width="100%" viewBox="0 0 512 512" enable-background="new 0 0 512 512" xml:space="preserve">
<path fill="#000000" opacity="1.000000" stroke="none" 
	d="
M290.000000,513.000000 
	C193.356796,513.000000 97.213585,513.000000 1.035192,513.000000 
	C1.035192,342.398438 1.035192,171.796860 1.035192,1.097646 
	C171.559891,1.097646 342.119843,1.097646 512.839905,1.097646 
	C512.839905,171.666550 512.839905,342.333252 512.839905,513.000000 
	C438.796844,513.000000 364.648407,513.000000 290.000000,513.000000 
M294.051544,319.046112 
	C294.051544,319.046112 294.041962,319.124420 294.560242,318.946228 
	C294.748993,318.646484 294.937744,318.346741 295.787201,317.780121 
	C301.867523,314.215363 307.947845,310.650635 314.728180,307.003479 
	C315.864838,306.352814 317.001526,305.702118 318.682922,304.887878 
	C319.138947,304.304779 319.595001,303.721710 320.705658,303.007812 
	C321.516510,302.355682 322.327332,301.703583 323.586548,301.016205 
	C323.586548,301.016205 324.005219,300.851959 324.549377,300.932007 
	C324.749298,300.635376 324.949219,300.338776 325.731415,299.846527 
	C326.489349,299.181671 327.247284,298.516815 328.549408,297.932007 
	C328.749329,297.635406 328.949219,297.338776 329.731171,296.846680 
	C330.489105,296.181763 331.247070,295.516876 332.549286,294.932068 
	C332.749268,294.635437 332.949219,294.338806 333.767639,293.813324 
	C335.513397,292.159546 337.259155,290.505737 339.549225,288.932098 
	C339.749207,288.635437 339.949188,288.338806 340.769409,287.811218 
	C343.530243,284.920074 346.291077,282.028931 349.555420,278.949463 
	C349.654266,278.642273 349.753113,278.335114 350.114075,277.393005 
	C358.310425,269.999756 363.821869,260.669891 369.681335,250.841507 
	C370.404846,249.231949 371.128357,247.622391 372.016205,245.589966 
	C372.016205,245.589966 372.051880,245.137695 372.555237,244.949570 
	C372.654114,244.642517 372.753021,244.335464 373.015076,243.382629 
	C373.053589,242.940994 373.092133,242.499374 373.717285,241.811646 
	C374.095490,240.878754 374.473694,239.945862 375.016205,238.590027 
	C375.016205,238.590027 375.051880,238.137695 375.555267,237.949539 
	C375.654144,237.642487 375.753052,237.335434 376.014648,236.412064 
	C376.027069,235.987305 376.039459,235.562531 376.555267,234.949570 
	C376.654175,234.642517 376.753052,234.335464 377.014679,233.412094 
	C377.027069,232.987320 377.039490,232.562531 377.555267,231.949570 
	C377.654175,231.642517 377.753082,231.335464 378.014618,230.412094 
	C378.027039,229.987320 378.039459,229.562546 378.555298,228.949554 
	C378.654175,228.642471 378.753082,228.335388 379.015137,227.382690 
	C379.053650,226.941162 379.092163,226.499619 379.710297,225.819092 
	C379.757538,225.217072 379.804749,224.615036 380.015106,223.372574 
	C380.053619,222.934418 380.092163,222.496246 380.710327,221.819107 
	C380.757568,221.217087 380.804779,220.615067 381.014587,219.286240 
	C381.053253,218.543564 381.091888,217.800903 381.794800,216.719070 
	C381.813843,215.487656 381.832916,214.256241 382.015137,212.380386 
	C382.053650,211.939621 382.092163,211.498856 382.710327,210.819107 
	C382.757538,210.217087 382.804779,209.615067 383.014587,208.162796 
	C383.022949,206.147034 383.031281,204.131256 383.648621,201.874496 
	C383.717194,201.253693 383.785767,200.632889 384.014771,199.216858 
	C383.961304,198.140564 383.907837,197.064255 383.992767,195.250427 
	C383.946625,194.504364 383.900513,193.758286 384.013702,192.343719 
	C383.960571,191.891800 383.907440,191.439865 383.992798,190.166351 
	C383.946655,188.781601 383.900482,187.396835 384.014740,185.163223 
	C383.961273,183.440109 383.907806,181.716980 383.992004,179.342255 
	C383.946136,178.903061 383.900238,178.463852 384.013733,177.351974 
	C383.960602,176.897293 383.907471,176.442627 383.992737,175.090591 
	C383.946625,172.064484 383.900482,169.038361 384.014740,165.216949 
	C383.961273,164.140594 383.907806,163.064224 383.992798,161.199982 
	C383.946655,160.137405 383.900482,159.074829 384.013702,157.343719 
	C383.960571,156.891769 383.907440,156.439835 383.992737,155.110672 
	C383.946594,152.744522 383.900452,150.378357 384.014679,147.264557 
	C383.961243,146.505646 383.907776,145.746719 383.992737,144.110657 
	C383.946625,141.744522 383.900482,139.378387 384.014740,136.162521 
	C383.961273,134.437637 383.907806,132.712753 383.992798,130.069214 
	C383.946655,125.716843 383.900513,121.364464 384.014771,116.162399 
	C383.961304,114.437592 383.907837,112.712776 383.990234,110.295998 
	C383.057983,108.846107 382.125702,107.396217 381.178192,105.844078 
	C381.178192,105.844078 381.075287,105.853981 380.781769,105.227905 
	C378.523651,104.203270 376.265564,103.178642 373.168121,101.997200 
	C371.462738,101.955849 369.757324,101.914497 367.720367,101.203201 
	C366.486938,101.186813 365.253540,101.170418 363.373810,100.996620 
	C362.933197,100.955467 362.492554,100.914307 361.820221,100.287445 
	C361.216064,100.242966 360.611938,100.198486 359.365631,99.996613 
	C358.927704,99.955421 358.489777,99.914238 357.905884,99.377197 
	C357.606567,99.302811 357.307281,99.228416 356.393890,98.997032 
	C355.971710,98.980850 355.549561,98.964668 354.948761,98.439255 
	C354.640411,98.344170 354.332031,98.249092 353.376129,97.996620 
	C352.934692,97.955429 352.493286,97.914238 351.905884,97.377182 
	C351.606567,97.302795 351.307281,97.228416 350.366089,96.996635 
	C349.928284,96.955788 349.490509,96.914932 348.816589,96.284386 
	C348.406830,96.205025 347.997070,96.125671 347.540680,95.994652 
	C347.540680,95.994652 347.490265,96.042603 347.021271,95.537598 
	C346.580505,95.601593 346.139740,95.665588 345.173615,95.420555 
	C345.212585,95.804253 345.251556,96.187950 345.764893,96.183319 
	C345.557190,95.900894 345.349487,95.618477 345.182648,94.809700 
	C344.794281,94.591148 344.405884,94.372589 343.372040,93.996628 
	C342.931946,93.955421 342.491852,93.914215 341.762604,93.236671 
	C340.848938,93.218124 339.935303,93.199570 338.267853,93.019035 
	C334.290771,90.923012 330.432922,88.549934 326.316223,86.778328 
	C307.211426,78.556564 288.057800,70.446693 268.869019,62.422642 
	C263.591064,60.215603 258.385010,57.211311 252.233459,59.963596 
	C244.932312,63.230217 237.515350,66.237648 230.153732,69.369499 
	C215.576706,75.571014 201.069473,81.942947 186.406952,87.935066 
	C175.034958,92.582458 163.470840,96.759659 151.333817,100.997047 
	C150.889404,101.046654 150.445007,101.096252 149.159653,100.997025 
	C143.939346,102.344940 138.719055,103.692863 133.215103,105.008987 
	C133.002396,105.115593 132.945160,105.277245 132.430527,106.043648 
	C129.762695,112.210838 130.653549,118.619186 130.996246,125.746750 
	C131.046143,126.502831 131.096024,127.258919 130.748734,128.780533 
	C130.508209,129.185623 130.058167,129.590240 130.057220,129.995895 
	C130.009399,150.625854 129.964020,171.256149 130.087860,191.885376 
	C130.094315,192.961014 131.576828,194.027817 132.393112,194.977676 
	C132.393112,194.977676 132.227936,195.065323 131.249817,194.915009 
	C131.161743,198.131226 130.846512,201.365524 131.100067,204.554581 
	C131.198212,205.788971 132.584549,206.920944 134.033478,207.544495 
	C133.848679,207.327835 133.663864,207.111160 133.142502,206.729691 
	C132.890793,206.710541 132.666672,206.779739 132.021622,207.856781 
	C132.657806,218.476471 135.149750,228.610718 139.977829,238.768631 
	C140.032806,239.180389 140.087784,239.592133 140.022949,240.498520 
	C140.447540,240.733551 140.872131,240.968567 141.551254,241.773071 
	C141.888641,241.618652 142.226013,241.464233 142.603821,240.945084 
	C142.603821,240.945084 142.249603,240.844421 142.249603,240.844421 
	C142.249603,240.844421 142.087631,241.174362 141.307617,240.975586 
	C142.218414,243.150360 143.129227,245.325119 143.986435,247.552856 
	C143.986435,247.552856 144.039185,247.606659 144.023987,248.372406 
	C144.362244,248.747528 144.700500,249.122650 144.984711,249.552490 
	C144.984711,249.552490 145.039185,249.606796 145.023987,250.372498 
	C145.362244,250.747574 145.700500,251.122650 145.989304,251.537415 
	C145.989304,251.537415 146.038177,251.577759 146.014359,252.296295 
	C146.661209,252.903580 147.308044,253.510864 148.014053,254.847549 
	C154.112259,263.178223 159.507751,272.157288 166.464005,279.696228 
	C178.629913,292.881226 193.046906,303.474091 209.051712,312.556366 
	C209.359131,312.653259 209.666565,312.750153 210.407700,313.009644 
	C210.407700,313.009644 210.869110,313.050079 211.051651,313.556244 
	C211.358948,313.653168 211.666260,313.750122 212.406616,314.009552 
	C212.406616,314.009552 212.867523,314.048706 213.098587,314.616577 
	C213.617996,314.587280 214.137421,314.557983 215.176437,314.918060 
	C215.349335,314.580719 215.522232,314.243408 215.841446,314.121490 
	C215.841446,314.121490 216.190521,314.001038 216.190521,314.001038 
	C216.190521,314.001038 216.206894,313.645935 215.505051,314.103271 
	C215.642593,314.615265 215.780136,315.127258 215.813156,316.167511 
	C216.202133,316.394012 216.591095,316.620544 217.410248,317.009583 
	C217.410248,317.009583 217.868378,317.049408 218.158768,317.681030 
	C219.768234,318.404633 221.377716,319.128235 223.410065,320.016174 
	C223.410065,320.016174 223.862350,320.051880 224.050415,320.555206 
	C224.357391,320.654144 224.664383,320.753052 225.402374,321.016235 
	C225.402374,321.016235 225.862244,321.051880 226.050430,321.555267 
	C226.357483,321.654175 226.664536,321.753082 227.401749,322.016174 
	C227.401749,322.016174 227.860886,322.050720 228.051834,322.558228 
	C228.538330,322.655670 229.024811,322.753143 230.072235,322.501892 
	C229.964661,322.309814 229.857071,322.117737 229.719910,322.104614 
	C229.743073,322.441071 229.902710,322.595459 229.664368,323.012360 
	C230.237381,323.325226 230.810379,323.638092 231.445312,324.018036 
	C231.445312,324.018036 231.512756,323.956482 232.018219,324.511139 
	C232.472336,324.657715 232.926468,324.804291 233.437714,325.006470 
	C233.437714,325.006470 233.493423,324.949493 234.013107,325.504852 
	C235.149673,325.987335 236.286240,326.469849 237.463348,327.001740 
	C237.463348,327.001740 237.502960,326.951599 238.015930,327.509186 
	C239.144150,327.989838 240.272369,328.470490 241.454025,329.009735 
	C241.454025,329.009735 241.512802,328.956512 242.018188,329.511169 
	C242.472290,329.657745 242.926392,329.804321 243.443832,330.019440 
	C243.443832,330.019440 243.512711,329.956451 244.018188,330.511200 
	C244.472336,330.657776 244.926483,330.804352 245.440765,331.010376 
	C245.440765,331.010376 245.500397,330.950409 245.985992,331.468231 
	C246.986359,331.929474 247.986710,332.390717 249.409958,333.016235 
	C249.409958,333.016235 249.862228,333.051880 250.050430,333.555267 
	C250.357483,333.654175 250.664536,333.753052 251.402451,334.016266 
	C251.402451,334.016266 251.862228,334.051880 252.050415,334.555267 
	C252.357483,334.654144 252.664536,334.753052 253.617218,335.015106 
	C254.058762,335.053589 254.500320,335.092102 255.283371,335.796661 
	C256.877228,335.572113 258.471069,335.347565 260.714264,335.034088 
	C261.144257,334.973389 261.574280,334.912659 262.548798,334.932343 
	C262.748932,334.635620 262.949036,334.338898 263.591949,334.015533 
	C263.591949,334.015533 264.004303,333.851959 264.548828,333.932343 
	C264.748962,333.635620 264.949066,333.338898 265.591949,333.015533 
	C265.591949,333.015533 266.004272,332.851959 266.548798,332.932343 
	C266.748901,332.635620 266.949036,332.338898 267.596069,332.015533 
	C267.596069,332.015533 268.012787,331.851959 268.731293,331.986481 
	C270.533600,331.008118 272.335907,330.029785 274.586395,329.016205 
	C274.586395,329.016205 275.004913,328.851959 275.549225,328.932098 
	C275.749207,328.635468 275.949158,328.338837 276.592072,328.015472 
	C276.592072,328.015472 277.004547,327.851898 277.548950,327.932220 
	C277.748993,327.635529 277.949005,327.338837 278.596405,327.015442 
	C278.596405,327.015442 279.013611,326.851807 279.703979,326.815338 
	C281.182037,325.894043 282.660065,324.972748 284.586060,324.016174 
	C284.586060,324.016174 285.004272,323.851898 285.548767,323.932312 
	C285.748871,323.635590 285.948975,323.338867 286.591919,323.015472 
	C286.591919,323.015472 287.004272,322.851898 287.548737,322.932312 
	C287.748871,322.635590 287.948975,322.338867 288.592010,322.015472 
	C288.592010,322.015472 289.004456,321.851898 289.548889,321.932251 
	C289.748993,321.635559 289.949066,321.338867 290.592377,321.015472 
	C290.592377,321.015472 291.005219,320.851929 291.549408,320.931976 
	C291.749329,320.635345 291.949249,320.338745 292.592468,320.015503 
	C292.592468,320.015503 293.005341,319.851959 293.542145,319.936798 
	C293.737976,319.643616 293.933807,319.350403 294.051544,319.046112 
z"/>
<path fill="#7BC7A8" opacity="1.000000" stroke="none" 
	d="
M347.490265,96.042610 
	C347.490265,96.042603 347.540680,95.994652 347.369202,96.415955 
	C347.727600,97.457542 348.257477,98.077835 349.006042,98.943771 
	C357.488403,101.069221 365.752014,102.949020 374.322174,104.911629 
	C376.777557,105.280952 378.926422,105.567467 381.075287,105.853981 
	C381.075287,105.853981 381.178192,105.844078 380.831848,106.032043 
	C380.407471,106.697258 380.329437,107.174492 380.257965,108.029312 
	C380.555267,118.944191 380.846008,129.481491 381.095032,140.353149 
	C381.084320,141.134811 381.115265,141.582092 381.079102,142.491974 
	C380.992828,155.250839 381.214050,167.553619 380.882233,179.841461 
	C380.591492,190.609192 380.376373,201.461533 378.830231,212.087677 
	C377.504486,221.199081 374.341827,230.043213 371.782379,239.202988 
	C371.418427,239.945175 371.263611,240.489899 370.873810,241.279831 
	C370.011932,242.986465 369.385010,244.447876 368.548431,246.097656 
	C368.137512,246.811188 367.936188,247.336334 367.485229,248.083557 
	C354.353333,272.379150 335.322479,290.571686 312.424683,304.866730 
	C302.175720,311.265106 291.426758,316.862671 280.629913,322.891357 
	C279.874756,323.229340 279.394409,323.499603 278.553406,323.842285 
	C275.348816,325.241455 272.412537,326.402679 269.679291,327.927765 
	C263.014374,331.646515 256.335419,334.558105 248.372101,330.071655 
	C247.115616,330.276093 246.308014,330.613251 245.500397,330.950409 
	C245.500397,330.950409 245.440765,331.010376 245.291077,330.557312 
	C244.598480,330.055023 244.055603,330.005737 243.512711,329.956451 
	C243.512711,329.956451 243.443832,330.019440 243.290207,329.563721 
	C242.595322,329.057526 242.054062,329.007019 241.512802,328.956512 
	C241.512802,328.956512 241.454025,329.009735 241.510956,328.473633 
	C240.212921,327.608887 238.857941,327.280243 237.502960,326.951599 
	C237.502960,326.951599 237.463348,327.001740 237.759613,326.709167 
	C237.975052,325.885681 237.894226,325.354706 237.676544,324.575806 
	C236.485519,324.315094 235.431381,324.302368 234.044128,324.304382 
	C233.638489,324.529236 233.565948,324.739380 233.493423,324.949493 
	C233.493423,324.949493 233.437714,325.006470 233.287125,324.557251 
	C232.595276,324.057556 232.054016,324.007019 231.512756,323.956482 
	C231.512756,323.956482 231.445312,324.018036 231.260025,323.516235 
	C230.782776,322.865540 230.490799,322.716675 230.198807,322.567780 
	C229.902710,322.595459 229.743073,322.441071 229.737823,321.580170 
	C227.492844,319.731506 225.229950,318.407288 222.756073,316.890137 
	C222.021164,316.498047 221.497223,316.298828 220.702972,315.828583 
	C219.024094,314.920349 217.615494,314.283142 216.206894,313.645935 
	C216.206894,313.645935 216.190521,314.001038 216.190521,314.001038 
	C216.190521,314.001038 215.841446,314.121490 215.601151,313.622925 
	C213.719727,312.023773 212.134415,310.826996 210.428925,309.837311 
	C190.577209,298.317627 172.768799,284.370026 158.616547,266.116394 
	C154.977371,261.422546 151.606857,256.520416 147.918884,251.469055 
	C147.162613,251.342010 146.600403,251.459900 146.038177,251.577759 
	C146.038177,251.577759 145.989304,251.537415 146.131836,251.093719 
	C145.862625,250.302277 145.450912,249.954544 145.039185,249.606796 
	C145.039185,249.606796 144.984711,249.552490 145.130356,249.100769 
	C144.863724,248.301575 144.451462,247.954117 144.039185,247.606659 
	C144.039185,247.606659 143.986435,247.552856 144.377731,247.107132 
	C143.875229,244.832397 142.981430,243.003372 142.087631,241.174362 
	C142.087631,241.174362 142.249603,240.844421 142.249603,240.844421 
	C142.249603,240.844421 142.603821,240.945084 142.705750,240.713928 
	C142.235703,238.977173 141.663727,237.471542 141.053650,235.589600 
	C140.229538,232.809006 139.443527,230.404724 138.618210,227.795990 
	C138.461044,227.328094 138.275757,227.126617 138.025284,226.683929 
	C137.762253,225.645187 137.496994,224.909653 137.200058,223.781219 
	C137.019958,222.623581 136.871521,221.858871 136.700134,220.816513 
	C135.823502,216.709183 134.969833,212.879486 134.012741,208.494446 
	C133.765900,207.590912 133.622467,207.242706 133.479050,206.894501 
	C133.663864,207.111160 133.848679,207.327835 133.918732,207.330368 
	C133.812302,206.409622 133.820618,205.702988 133.869751,204.664490 
	C133.870377,203.889908 133.830231,203.447220 133.822754,202.560242 
	C133.312927,199.765732 132.770432,197.415527 132.227936,195.065323 
	C132.227936,195.065323 132.393112,194.977676 132.602539,194.551758 
	C132.835190,193.071426 132.858398,192.016998 132.944901,190.500427 
	C132.953476,178.361053 132.898758,166.683807 132.895111,154.672882 
	C132.911957,153.891739 132.877762,153.444305 132.908859,152.556763 
	C132.946014,149.745453 132.917877,147.374252 132.948578,144.665146 
	C132.971786,143.872986 132.936172,143.418732 132.966827,142.600739 
	C132.997238,141.501617 132.961395,140.766251 132.990356,139.588150 
	C133.010651,136.763428 132.966141,134.381424 132.966431,131.750519 
	C132.988297,131.334579 132.965347,131.167542 133.007355,130.668518 
	C133.036942,129.888748 133.001556,129.440918 133.035233,128.652954 
	C133.018127,127.187416 132.931946,126.062027 132.916763,124.553802 
	C132.675537,122.964249 132.363312,121.757538 132.368927,120.417389 
	C132.806030,119.847900 132.925308,119.411842 133.120178,118.611526 
	C133.150787,117.508224 133.105804,116.769173 133.135956,115.607040 
	C133.248199,113.469963 133.285263,111.755959 133.462296,109.719238 
	C133.415970,108.095665 133.229675,106.794807 133.043396,105.493942 
	C132.945160,105.277245 133.002396,105.115593 133.654358,105.383530 
	C139.395264,105.111740 144.696930,104.465401 150.317719,103.852280 
	C151.425339,103.592033 152.213806,103.298561 153.390045,103.013069 
	C157.575928,101.842941 161.501709,100.969223 165.151917,99.438400 
	C193.506012,87.547302 221.840866,75.608444 250.092346,63.476337 
	C255.031830,61.355160 259.309418,61.287128 264.311798,63.445816 
	C289.338470,74.245689 314.495667,84.743561 339.637726,95.274330 
	C341.394867,96.010307 343.400452,96.153046 345.290527,96.571655 
	C345.251556,96.187950 345.212585,95.804253 345.847382,95.862099 
	C346.844177,96.216629 347.167236,96.129623 347.490265,96.042610 
M199.888214,190.024307 
	C209.720749,190.012665 219.559921,189.768066 229.384109,190.048584 
	C241.557175,190.396149 251.407730,195.788559 259.375336,204.880051 
	C261.151520,206.906799 261.145386,208.292679 259.102051,210.283600 
	C250.783371,218.388916 247.135818,228.444427 247.172333,239.992340 
	C247.244507,262.824768 247.221115,285.657501 247.243408,308.490112 
	C247.250671,315.928284 248.395966,317.172791 256.844238,318.478638 
	C256.844238,316.610443 256.844574,314.824310 256.844177,313.038177 
	C256.838501,288.039154 256.667114,263.038696 256.884888,238.041595 
	C257.031860,221.167801 270.348480,207.589600 287.190674,207.016495 
	C297.843018,206.654022 308.526672,206.679672 319.180481,207.022781 
	C333.678802,207.489716 346.752197,219.042099 349.052399,233.315140 
	C349.931702,238.771362 349.947906,244.366684 350.365540,250.008392 
	C350.877777,249.751511 351.246704,249.683578 351.410950,249.463150 
	C352.006470,248.663635 352.556580,247.827393 353.082825,246.979553 
	C362.518372,231.777222 367.658325,215.170563 367.927490,197.345261 
	C368.307434,172.185699 368.055359,147.016495 368.048859,121.851418 
	C368.048492,120.399178 367.827484,118.946999 367.828064,118.954147 
	C356.477783,114.933701 345.861511,111.645958 335.617004,107.450363 
	C310.971375,97.356895 286.479492,86.885948 261.982269,76.434456 
	C258.652435,75.013809 255.856491,75.143509 252.484879,76.451714 
	C217.076416,90.190308 183.508148,108.638306 146.211349,118.579727 
	C146.204544,118.630112 146.039368,119.282066 146.039597,119.933945 
	C146.048859,146.599319 145.722885,173.272232 146.297699,199.925690 
	C146.482437,208.492691 149.048233,217.008331 150.524719,225.547485 
	C151.118164,225.554321 151.711609,225.561172 152.305038,225.568024 
	C153.642059,215.984375 157.438995,207.672379 164.537994,201.153534 
	C171.752457,194.528656 180.087067,190.392715 190.579636,190.493408 
	C191.701187,190.365799 192.822739,190.238190 194.759949,189.995178 
	C195.855026,190.037979 196.950104,190.080795 198.255722,190.263931 
	C198.255722,190.263931 198.616867,190.304199 198.616867,190.304199 
	C198.616867,190.304199 198.950424,190.135773 199.888214,190.024307 
M245.680664,328.697510 
	C245.489639,328.688538 245.298615,328.679596 245.107590,328.670624 
	C245.198532,328.768646 245.289490,328.866699 245.680664,328.697510 
z"/>
<path fill="#F7F8F6" opacity="1.000000" stroke="none" 
	d="
M345.527710,96.377487 
	C343.400452,96.153046 341.394867,96.010307 339.637726,95.274330 
	C314.495667,84.743561 289.338470,74.245689 264.311798,63.445816 
	C259.309418,61.287128 255.031830,61.355160 250.092346,63.476337 
	C221.840866,75.608444 193.506012,87.547302 165.151917,99.438400 
	C161.501709,100.969223 157.575928,101.842941 153.279587,102.772552 
	C152.518280,102.064644 152.255203,101.605255 151.992111,101.145859 
	C163.470840,96.759659 175.034958,92.582458 186.406952,87.935066 
	C201.069473,81.942947 215.576706,75.571014 230.153732,69.369499 
	C237.515350,66.237648 244.932312,63.230217 252.233459,59.963596 
	C258.385010,57.211311 263.591064,60.215603 268.869019,62.422642 
	C288.057800,70.446693 307.211426,78.556564 326.316223,86.778328 
	C330.432922,88.549934 334.290771,90.923012 338.837128,93.262276 
	C340.288177,93.628014 341.169983,93.750511 342.051758,93.873009 
	C342.491852,93.914215 342.931946,93.955421 343.984955,94.362175 
	C344.779144,94.930504 344.960449,95.133278 345.141785,95.336060 
	C345.349487,95.618477 345.557190,95.900894 345.527710,96.377487 
z"/>
<path fill="#F2F1EF" opacity="1.000000" stroke="none" 
	d="
M280.904694,322.823639 
	C291.426758,316.862671 302.175720,311.265106 312.424683,304.866730 
	C335.322479,290.571686 354.353333,272.379150 367.727966,248.352905 
	C368.497589,249.312546 368.774872,250.224915 369.052185,251.137268 
	C363.821869,260.669891 358.310425,269.999756 349.837158,277.885956 
	C349.413177,278.646881 349.243713,278.899811 349.051880,279.137756 
	C346.291077,282.028931 343.530243,284.920074 340.270935,288.065979 
	C339.492615,288.463196 339.236786,288.640289 339.004913,288.851959 
	C337.259155,290.505737 335.513397,292.159546 333.270020,294.067047 
	C332.492645,294.463196 332.236816,294.640259 332.005005,294.851959 
	C331.247070,295.516876 330.489105,296.181763 329.251831,297.083710 
	C328.492798,297.463165 328.237030,297.640228 328.005249,297.851959 
	C327.247284,298.516815 326.489349,299.181671 325.251953,300.083649 
	C324.492767,300.463196 324.237000,300.640259 324.005219,300.851959 
	C324.005219,300.851959 323.586548,301.016205 323.015747,301.051819 
	C321.646942,301.771179 320.848969,302.454895 320.051025,303.138611 
	C319.595001,303.721710 319.138947,304.304779 318.041138,304.964050 
	C316.275635,305.722076 315.151917,306.403992 314.028168,307.085876 
	C307.947845,310.650635 301.867523,314.215363 295.285950,318.101135 
	C294.537140,318.656250 294.289551,318.890350 294.041962,319.124420 
	C294.041962,319.124420 294.051544,319.046112 293.904053,319.186646 
	C293.482605,319.468414 293.232208,319.643341 293.005341,319.851959 
	C293.005341,319.851959 292.592468,320.015503 292.182465,320.168091 
	C291.492737,320.463104 291.236969,320.640198 291.005219,320.851929 
	C291.005219,320.851929 290.592377,321.015472 290.182312,321.168091 
	C289.492462,321.463257 289.236511,321.640320 289.004456,321.851898 
	C289.004456,321.851898 288.592010,322.015472 288.182098,322.168091 
	C287.492310,322.463226 287.236328,322.640289 287.004272,322.851898 
	C287.004272,322.851898 286.591919,323.015472 286.182068,323.168091 
	C285.492310,323.463226 285.236328,323.640289 285.004272,323.851898 
	C285.004272,323.851898 284.586060,324.016174 284.009552,323.990234 
	C282.590271,323.584076 281.747467,323.203857 280.904694,322.823639 
z"/>
<path fill="#F5F6F3" opacity="1.000000" stroke="none" 
	d="
M148.112930,251.713974 
	C151.606857,256.520416 154.977371,261.422546 158.616547,266.116394 
	C172.768799,284.370026 190.577209,298.317627 210.428925,309.837311 
	C212.134415,310.826996 213.719727,312.023773 215.527985,313.515198 
	C215.522232,314.243408 215.349335,314.580719 214.471603,314.594208 
	C213.467010,314.196442 213.167267,314.122559 212.867523,314.048706 
	C212.867523,314.048706 212.406616,314.009552 212.016464,313.781769 
	C211.367905,313.395020 211.115509,313.227051 210.869110,313.050079 
	C210.869110,313.050079 210.407700,313.009644 210.017105,312.781860 
	C209.368027,312.395081 209.115540,312.227081 208.869080,312.050079 
	C193.046906,303.474091 178.629913,292.881226 166.464005,279.696228 
	C159.507751,272.157288 154.112259,263.178223 148.041962,253.882996 
	C148.084213,252.516937 148.098572,252.115463 148.112930,251.713974 
z"/>
<path fill="#F2F1EF" opacity="1.000000" stroke="none" 
	d="
M371.991516,239.005524 
	C374.341827,230.043213 377.504486,221.199081 378.830231,212.087677 
	C380.376373,201.461533 380.591492,190.609192 380.882233,179.841461 
	C381.214050,167.553619 380.992828,155.250839 381.252808,142.733704 
	C382.280518,143.337830 383.067413,144.162827 383.854309,144.987823 
	C383.907776,145.746719 383.961243,146.505646 383.649628,147.772156 
	C383.474487,150.849121 383.664429,153.418503 383.854309,155.987885 
	C383.907440,156.439835 383.960571,156.891769 383.696838,157.758484 
	C383.538086,159.444794 383.696228,160.716324 383.854340,161.987869 
	C383.907806,163.064224 383.961273,164.140594 383.668457,165.737976 
	C383.499573,169.501968 383.676941,172.744965 383.854340,175.987946 
	C383.907471,176.442627 383.960602,176.897293 383.809143,177.870193 
	C383.687805,178.923569 383.771088,179.458710 383.854340,179.993866 
	C383.907806,181.716980 383.961273,183.440109 383.698914,185.673874 
	C383.540161,187.785660 383.697235,189.386810 383.854309,190.987946 
	C383.907440,191.439865 383.960571,191.891800 383.671844,192.781921 
	C383.504791,194.142746 383.679565,195.065353 383.854370,195.987961 
	C383.907837,197.064255 383.961304,198.140564 383.721985,199.682114 
	C383.299347,200.803406 383.169495,201.459457 383.039642,202.115494 
	C383.031281,204.131256 383.022949,206.147034 382.701843,208.663971 
	C382.302948,209.796127 382.216827,210.427109 382.130676,211.058090 
	C382.092163,211.498856 382.053650,211.939621 381.740112,212.925156 
	C381.353577,214.666031 381.242035,215.862122 381.130493,217.058228 
	C381.091888,217.800903 381.053253,218.543564 380.701904,219.725662 
	C380.303040,220.796082 380.216858,221.427094 380.130676,222.058090 
	C380.092163,222.496246 380.053619,222.934418 379.701660,223.767914 
	C379.302368,224.794861 379.216522,225.426468 379.130707,226.058090 
	C379.092163,226.499619 379.053650,226.941162 378.787659,227.880920 
	C378.413239,228.647095 378.243805,228.899963 378.051880,229.137772 
	C378.039459,229.562546 378.027039,229.987320 377.787415,230.895645 
	C377.413239,231.647110 377.243805,231.899963 377.051880,232.137756 
	C377.039490,232.562531 377.027069,232.987320 376.787415,233.895630 
	C376.413116,234.647049 376.243713,234.899918 376.051880,235.137772 
	C376.039459,235.562531 376.027069,235.987305 375.787415,236.895599 
	C375.413208,237.647034 375.243774,237.899887 375.051880,238.137695 
	C375.051880,238.137695 375.016205,238.590027 374.576599,238.794800 
	C373.421814,239.001541 372.706635,239.003525 371.991516,239.005524 
z"/>
<path fill="#F7F8F6" opacity="1.000000" stroke="none" 
	d="
M132.843567,152.996872 
	C132.877762,153.444305 132.911957,153.891739 132.607422,154.818695 
	C131.880295,155.984634 131.152496,156.672256 131.154907,157.357300 
	C131.186523,166.374939 131.233780,175.394730 131.492493,184.407791 
	C131.555542,186.604202 132.397690,188.778244 132.881607,190.962570 
	C132.858398,192.016998 132.835190,193.071426 132.592072,194.612289 
	C131.576828,194.027817 130.094315,192.961014 130.087860,191.885376 
	C129.964020,171.256149 130.009399,150.625854 130.057220,129.995895 
	C130.058167,129.590240 130.508209,129.185623 131.173828,128.522079 
	C132.054657,128.506790 132.510422,128.749939 132.966171,128.993103 
	C133.001556,129.440918 133.036942,129.888748 132.844391,130.708832 
	C132.718170,131.387192 132.819901,131.693314 132.921631,131.999420 
	C132.966141,134.381424 133.010651,136.763428 132.829758,139.808228 
	C132.703094,141.302170 132.801834,142.133331 132.900558,142.964478 
	C132.936172,143.418732 132.971786,143.872986 132.704559,144.802902 
	C132.549011,147.851334 132.696289,150.424103 132.843567,152.996872 
z"/>
<path fill="#F2F1EF" opacity="1.000000" stroke="none" 
	d="
M248.820984,330.204407 
	C256.335419,334.558105 263.014374,331.646515 269.679291,327.927765 
	C272.412537,326.402679 275.348816,325.241455 278.576599,324.228027 
	C278.978210,325.311493 278.995911,326.081665 279.013611,326.851807 
	C279.013611,326.851807 278.596405,327.015442 278.184326,327.168091 
	C277.492462,327.463257 277.236572,327.640320 277.004547,327.851898 
	C277.004547,327.851898 276.592072,328.015472 276.182190,328.168091 
	C275.492584,328.463196 275.236786,328.640289 275.004913,328.851959 
	C275.004913,328.851959 274.586395,329.016205 273.979980,329.025330 
	C271.586670,329.973602 269.799713,330.912781 268.012787,331.851959 
	C268.012787,331.851959 267.596069,332.015533 267.184143,332.168121 
	C266.492310,332.463257 266.236328,332.640320 266.004272,332.851959 
	C266.004272,332.851959 265.591949,333.015533 265.182098,333.168152 
	C264.492371,333.463318 264.236389,333.640381 264.004303,333.851959 
	C264.004303,333.851959 263.591949,334.015533 263.182129,334.168152 
	C262.492462,334.463409 262.236481,334.640472 262.004272,334.851959 
	C261.574280,334.912659 261.144257,334.973389 260.176086,334.904175 
	C258.072571,334.893036 256.507233,335.011841 254.941864,335.130615 
	C254.500320,335.092102 254.058762,335.053589 253.119003,334.787659 
	C252.352905,334.413208 252.100052,334.243774 251.862228,334.051880 
	C251.862228,334.051880 251.402451,334.016266 251.011642,333.788208 
	C250.352936,333.413177 250.100067,333.243744 249.862228,333.051880 
	C249.862228,333.051880 249.409958,333.016235 249.184723,332.493744 
	C248.913330,331.382294 248.867157,330.793365 248.820984,330.204407 
z"/>
<path fill="#F7F8F6" opacity="1.000000" stroke="none" 
	d="
M138.657516,228.000427 
	C139.443527,230.404724 140.229538,232.809006 140.848053,235.824722 
	C140.435150,237.004959 140.189728,237.573776 139.944305,238.142593 
	C135.149750,228.610718 132.657806,218.476471 132.606445,207.971954 
	C133.499557,208.408020 133.807861,208.728897 134.116165,209.049789 
	C134.969833,212.879486 135.823502,216.709183 136.570602,221.067932 
	C136.719940,222.456024 136.975830,223.315063 137.231720,224.174118 
	C137.496994,224.909653 137.762253,225.645187 137.964417,226.818573 
	C138.153381,227.504425 138.405441,227.752426 138.657516,228.000427 
z"/>
<path fill="#F2F1EF" opacity="1.000000" stroke="none" 
	d="
M381.136719,140.018784 
	C380.846008,129.481491 380.555267,118.944191 380.552307,108.259735 
	C381.844849,109.071037 382.849579,110.029503 383.854370,110.987976 
	C383.907837,112.712776 383.961304,114.437592 383.706848,116.663605 
	C383.550751,121.772491 383.702545,126.380180 383.854340,130.987869 
	C383.907806,132.712753 383.961273,134.437637 383.698700,136.666138 
	C382.634003,138.119431 381.885345,139.069107 381.136719,140.018784 
z"/>
<path fill="#F7F8F6" opacity="1.000000" stroke="none" 
	d="
M374.015656,104.828819 
	C365.752014,102.949020 357.488403,101.069221 349.080231,98.487473 
	C348.974701,97.481712 349.013702,97.177895 349.052704,96.874084 
	C349.490509,96.914932 349.928284,96.955788 350.722168,97.239975 
	C351.402771,97.613220 351.727325,97.743134 352.051849,97.873047 
	C352.493286,97.914238 352.934692,97.955429 353.871399,98.224159 
	C354.615265,98.624908 354.868835,98.790504 355.127380,98.948494 
	C355.549561,98.964668 355.971710,98.980850 356.736023,99.240173 
	C357.402740,99.613220 357.727295,99.743134 358.051849,99.873047 
	C358.489777,99.914238 358.927704,99.955421 359.766785,100.303299 
	C360.795929,100.697708 361.423950,100.785423 362.051941,100.873154 
	C362.492554,100.914307 362.933197,100.955467 363.921570,101.265182 
	C365.663544,101.646873 366.857727,101.760010 368.051941,101.873146 
	C369.757324,101.914497 371.462738,101.955849 373.588074,102.409981 
	C374.010559,103.491447 374.013123,104.160133 374.015656,104.828819 
z"/>
<path fill="#F7F8F6" opacity="1.000000" stroke="none" 
	d="
M149.998596,103.819061 
	C144.696930,104.465401 139.395264,105.111740 133.796173,105.399429 
	C138.719055,103.692863 143.939346,102.344940 149.579865,101.405899 
	C149.999588,102.482872 149.999100,103.150963 149.998596,103.819061 
z"/>
<path fill="#F7F8F6" opacity="1.000000" stroke="none" 
	d="
M132.736969,105.768799 
	C133.229675,106.794807 133.415970,108.095665 133.207840,109.983543 
	C132.895889,112.390411 132.978348,114.210266 133.060806,116.030121 
	C133.105804,116.769173 133.150787,117.508224 132.926865,118.855988 
	C132.455658,119.826744 132.253372,120.188782 132.051086,120.550827 
	C132.363312,121.757538 132.675537,122.964249 132.490265,124.561806 
	C131.710495,124.968613 131.428192,124.984573 131.145874,125.000534 
	C130.653549,118.619186 129.762695,112.210838 132.736969,105.768799 
z"/>
<path fill="#F7F8F6" opacity="1.000000" stroke="none" 
	d="
M131.738876,194.990173 
	C132.770432,197.415527 133.312927,199.765732 133.610062,202.645935 
	C133.519455,203.782730 133.674210,204.389557 133.828949,204.996368 
	C133.820618,205.702988 133.812302,206.409622 133.593994,207.607910 
	C132.584549,206.920944 131.198212,205.788971 131.100067,204.554581 
	C130.846512,201.365524 131.161743,198.131226 131.738876,194.990173 
z"/>
<path fill="#FEFFFA" opacity="1.000000" stroke="none" 
	d="
M383.923584,130.528534 
	C383.702545,126.380180 383.550751,121.772491 383.626648,117.088448 
	C383.900513,121.364464 383.946655,125.716843 383.923584,130.528534 
z"/>
<path fill="#F2F1EF" opacity="1.000000" stroke="none" 
	d="
M222.967056,317.083038 
	C225.229950,318.407288 227.492844,319.731506 229.752594,321.490692 
	C229.857071,322.117737 229.964661,322.309814 229.387238,322.458801 
	C228.421799,322.294037 228.141342,322.172394 227.860886,322.050720 
	C227.860886,322.050720 227.401749,322.016174 227.011292,321.788147 
	C226.352966,321.413116 226.100098,321.243713 225.862244,321.051880 
	C225.862244,321.051880 225.402374,321.016235 225.011581,320.788177 
	C224.352951,320.413116 224.100143,320.243713 223.862350,320.051880 
	C223.862350,320.051880 223.410065,320.016174 223.204254,319.587891 
	C222.987976,318.467407 222.977524,317.775238 222.967056,317.083038 
z"/>
<path fill="#FEFFFA" opacity="1.000000" stroke="none" 
	d="
M381.095032,140.353149 
	C381.885345,139.069107 382.634003,138.119431 383.618500,137.091003 
	C383.900482,139.378387 383.946625,141.744522 383.923523,144.549240 
	C383.067413,144.162827 382.280518,143.337830 381.319916,142.271118 
	C381.115265,141.582092 381.084320,141.134811 381.095032,140.353149 
z"/>
<path fill="#FEFFFA" opacity="1.000000" stroke="none" 
	d="
M383.923523,175.539276 
	C383.676941,172.744965 383.499573,169.501968 383.588257,166.135620 
	C383.900482,169.038361 383.946625,172.064484 383.923523,175.539276 
z"/>
<path fill="#FEFFFA" opacity="1.000000" stroke="none" 
	d="
M374.322174,104.911629 
	C374.013123,104.160133 374.010559,103.491447 374.007751,102.488388 
	C376.265564,103.178642 378.523651,104.203270 380.928528,105.540939 
	C378.926422,105.567467 376.777557,105.280952 374.322174,104.911629 
z"/>
<path fill="#F2F1EF" opacity="1.000000" stroke="none" 
	d="
M368.758057,245.909302 
	C369.385010,244.447876 370.011932,242.986465 371.127380,241.406128 
	C372.120850,241.544067 372.625763,241.800903 373.130676,242.057739 
	C373.092133,242.499374 373.053589,242.940994 372.787659,243.880920 
	C372.413300,244.647110 372.243835,244.899948 372.051880,245.137695 
	C372.051880,245.137695 372.016205,245.589966 371.547699,245.791992 
	C370.305481,245.965790 369.531799,245.937546 368.758057,245.909302 
z"/>
<path fill="#FEFFFA" opacity="1.000000" stroke="none" 
	d="
M383.923523,155.549286 
	C383.664429,153.418503 383.474487,150.849121 383.569458,148.145966 
	C383.900452,150.378357 383.946594,152.744522 383.923523,155.549286 
z"/>
<path fill="#FFFFFF" opacity="1.000000" stroke="none" 
	d="
M222.756073,316.890137 
	C222.977524,317.775238 222.987976,318.467407 222.992813,319.505737 
	C221.377716,319.128235 219.768234,318.404633 218.343811,317.335632 
	C219.343643,316.693359 220.158447,316.396484 220.973267,316.099609 
	C221.497223,316.298828 222.021164,316.498047 222.756073,316.890137 
z"/>
<path fill="#FFFFFF" opacity="1.000000" stroke="none" 
	d="
M279.358795,326.833557 
	C278.995911,326.081665 278.978210,325.311493 278.937256,324.155579 
	C279.394409,323.499603 279.874756,323.229340 280.629913,322.891357 
	C281.747467,323.203857 282.590271,323.584076 283.785583,324.007874 
	C282.660065,324.972748 281.182037,325.894043 279.358795,326.833557 
z"/>
<path fill="#FFFFFF" opacity="1.000000" stroke="none" 
	d="
M368.548462,246.097672 
	C369.531799,245.937546 370.305481,245.965790 371.465515,246.003418 
	C371.128357,247.622391 370.404846,249.231949 369.366760,250.989395 
	C368.774872,250.224915 368.497589,249.312546 367.977570,248.130844 
	C367.936188,247.336334 368.137512,246.811188 368.548462,246.097672 
z"/>
<path fill="#F5F6F3" opacity="1.000000" stroke="none" 
	d="
M220.702972,315.828613 
	C220.158447,316.396484 219.343643,316.693359 218.198608,317.019836 
	C217.868378,317.049408 217.410248,317.009583 216.917450,316.637024 
	C216.255661,316.056030 216.086655,315.847656 215.917664,315.639252 
	C215.780136,315.127258 215.642593,314.615265 215.855972,313.874603 
	C217.615494,314.283142 219.024094,314.920349 220.702972,315.828613 
z"/>
<path fill="#FFFFFF" opacity="1.000000" stroke="none" 
	d="
M268.372040,331.919220 
	C269.799713,330.912781 271.586670,329.973602 273.755920,329.042938 
	C272.335907,330.029785 270.533600,331.008118 268.372040,331.919220 
z"/>
<path fill="#FFFFFF" opacity="1.000000" stroke="none" 
	d="
M373.423981,241.934692 
	C372.625763,241.800903 372.120850,241.544067 371.362366,241.160919 
	C371.263611,240.489899 371.418427,239.945175 371.782349,239.202988 
	C372.706635,239.003525 373.421814,239.001541 374.494446,239.006256 
	C374.473694,239.945862 374.095490,240.878754 373.423981,241.934692 
z"/>
<path fill="#F5F6F3" opacity="1.000000" stroke="none" 
	d="
M139.961060,238.455612 
	C140.189728,237.573776 140.435150,237.004959 140.886169,236.201019 
	C141.663727,237.471542 142.235703,238.977173 142.685516,240.896301 
	C142.226013,241.464233 141.888641,241.618652 141.134583,241.193008 
	C140.526215,240.409943 140.334503,240.206924 140.142761,240.003891 
	C140.087784,239.592133 140.032806,239.180389 139.961060,238.455612 
z"/>
<path fill="#FFFFFF" opacity="1.000000" stroke="none" 
	d="
M255.112610,335.463654 
	C256.507233,335.011841 258.072571,334.893036 259.851440,334.948608 
	C258.471069,335.347565 256.877228,335.572113 255.112610,335.463654 
z"/>
<path fill="#FEFFFA" opacity="1.000000" stroke="none" 
	d="
M383.923584,190.577148 
	C383.697235,189.386810 383.540161,187.785660 383.618713,186.098297 
	C383.900482,187.396835 383.946655,188.781601 383.923584,190.577148 
z"/>
<path fill="#FEFFFA" opacity="1.000000" stroke="none" 
	d="
M383.922302,110.641983 
	C382.849579,110.029503 381.844849,109.071037 380.545776,107.882141 
	C380.329437,107.174492 380.407471,106.697258 380.839478,106.083168 
	C382.125702,107.396217 383.057983,108.846107 383.922302,110.641983 
z"/>
<path fill="#F8F8F5" opacity="1.000000" stroke="none" 
	d="
M131.071060,125.373642 
	C131.428192,124.984573 131.710495,124.968613 132.419281,124.944641 
	C132.931946,126.062027 133.018127,127.187416 133.035233,128.652954 
	C132.510422,128.749939 132.054657,128.506790 131.372406,128.139313 
	C131.096024,127.258919 131.046143,126.502831 131.071060,125.373642 
z"/>
<path fill="#FEFFFA" opacity="1.000000" stroke="none" 
	d="
M383.923584,161.593933 
	C383.696228,160.716324 383.538086,159.444794 383.617126,158.092743 
	C383.900482,159.074829 383.946655,160.137405 383.923584,161.593933 
z"/>
<path fill="#F7F8F6" opacity="1.000000" stroke="none" 
	d="
M141.697632,241.074982 
	C142.981430,243.003372 143.875229,244.832397 144.404541,247.080658 
	C143.129227,245.325119 142.218414,243.150360 141.697632,241.074982 
z"/>
<path fill="#F8F8F5" opacity="1.000000" stroke="none" 
	d="
M150.317734,103.852280 
	C149.999100,103.150963 149.999588,102.482872 150.000336,101.480316 
	C150.445007,101.096252 150.889404,101.046654 151.662964,101.071457 
	C152.255203,101.605255 152.518280,102.064644 152.891830,102.764557 
	C152.213806,103.298561 151.425339,103.592033 150.317734,103.852280 
z"/>
<path fill="#FFFFFF" opacity="1.000000" stroke="none" 
	d="
M314.378174,307.044678 
	C315.151917,306.403992 316.275635,305.722076 317.768799,305.045837 
	C317.001526,305.702118 315.864838,306.352814 314.378174,307.044678 
z"/>
<path fill="#FEFFFA" opacity="1.000000" stroke="none" 
	d="
M367.886169,101.538177 
	C366.857727,101.760010 365.663544,101.646873 364.244720,101.343880 
	C365.253540,101.170418 366.486938,101.186813 367.886169,101.538177 
z"/>
<path fill="#FFFFFF" opacity="1.000000" stroke="none" 
	d="
M381.462646,216.888641 
	C381.242035,215.862122 381.353577,214.666031 381.658508,213.247375 
	C381.832916,214.256241 381.813843,215.487656 381.462646,216.888641 
z"/>
<path fill="#FEFFFA" opacity="1.000000" stroke="none" 
	d="
M383.923553,195.619202 
	C383.679565,195.065353 383.504791,194.142746 383.592163,193.116180 
	C383.900513,193.758286 383.946625,194.504364 383.923553,195.619202 
z"/>
<path fill="#FFFFFF" opacity="1.000000" stroke="none" 
	d="
M320.378357,303.073212 
	C320.848969,302.454895 321.646942,301.771179 322.791565,301.069458 
	C322.327332,301.703583 321.516510,302.355682 320.378357,303.073212 
z"/>
<path fill="#FEFFFA" opacity="1.000000" stroke="none" 
	d="
M361.936096,100.580292 
	C361.423950,100.785423 360.795929,100.697708 360.087860,100.381996 
	C360.611938,100.198486 361.216064,100.242966 361.936096,100.580292 
z"/>
<path fill="#FFFFFF" opacity="1.000000" stroke="none" 
	d="
M233.753265,325.227173 
	C233.565948,324.739380 233.638489,324.529236 234.601974,324.494507 
	C236.266418,324.721161 237.039902,324.772461 237.813400,324.823792 
	C237.894226,325.354706 237.975052,325.885681 237.739334,326.684479 
	C236.286240,326.469849 235.149673,325.987335 233.753265,325.227173 
z"/>
<path fill="#FFFFFF" opacity="1.000000" stroke="none" 
	d="
M237.759445,327.230377 
	C238.857941,327.280243 240.212921,327.608887 241.484222,328.444336 
	C240.272369,328.470490 239.144150,327.989838 237.759445,327.230377 
z"/>
<path fill="#FFFFFF" opacity="1.000000" stroke="none" 
	d="
M248.372101,330.071655 
	C248.867157,330.793365 248.913330,331.382294 248.973297,332.411621 
	C247.986710,332.390717 246.986359,331.929474 245.743195,331.209320 
	C246.308014,330.613251 247.115616,330.276093 248.372101,330.071655 
z"/>
<path fill="#FEFFFA" opacity="1.000000" stroke="none" 
	d="
M341.907166,93.554840 
	C341.169983,93.750511 340.288177,93.628014 339.214020,93.343269 
	C339.935303,93.199570 340.848938,93.218124 341.907166,93.554840 
z"/>
<path fill="#FFFFFF" opacity="1.000000" stroke="none" 
	d="
M382.420502,210.938599 
	C382.216827,210.427109 382.302948,209.796127 382.620544,209.089096 
	C382.804779,209.615067 382.757538,210.217087 382.420502,210.938599 
z"/>
<path fill="#FFFFFF" opacity="1.000000" stroke="none" 
	d="
M380.420502,221.938599 
	C380.216858,221.427094 380.303040,220.796082 380.620605,220.089066 
	C380.804779,220.615067 380.757568,221.217087 380.420502,221.938599 
z"/>
<path fill="#FFFFFF" opacity="1.000000" stroke="none" 
	d="
M379.420502,225.938599 
	C379.216522,225.426468 379.302368,224.794861 379.620087,224.088135 
	C379.804749,224.615036 379.757538,225.217072 379.420502,225.938599 
z"/>
<path fill="#FEFFFA" opacity="1.000000" stroke="none" 
	d="
M383.344116,201.994995 
	C383.169495,201.459457 383.299347,200.803406 383.641754,200.079727 
	C383.785767,200.632889 383.717194,201.253693 383.344116,201.994995 
z"/>
<path fill="#F7F8F6" opacity="1.000000" stroke="none" 
	d="
M147.918884,251.469055 
	C148.098572,252.115463 148.084213,252.516937 148.012375,253.518280 
	C147.308044,253.510864 146.661209,252.903580 146.026276,251.937042 
	C146.600403,251.459900 147.162613,251.342010 147.918884,251.469055 
z"/>
<path fill="#FEFFFA" opacity="1.000000" stroke="none" 
	d="
M348.934631,96.579239 
	C349.013702,97.177895 348.974701,97.481712 348.861511,98.241821 
	C348.257477,98.077835 347.727600,97.457542 347.392517,96.441788 
	C347.997070,96.125671 348.406830,96.205025 348.934631,96.579239 
z"/>
<path fill="#FEFFFA" opacity="1.000000" stroke="none" 
	d="
M357.978882,99.625122 
	C357.727295,99.743134 357.402740,99.613220 357.043091,99.318665 
	C357.307281,99.228416 357.606567,99.302811 357.978882,99.625122 
z"/>
<path fill="#FEFFFA" opacity="1.000000" stroke="none" 
	d="
M383.923157,179.668060 
	C383.771088,179.458710 383.687805,178.923569 383.729431,178.206543 
	C383.900238,178.463852 383.946136,178.903061 383.923157,179.668060 
z"/>
<path fill="#FEFFFA" opacity="1.000000" stroke="none" 
	d="
M351.978882,97.625114 
	C351.727325,97.743134 351.402771,97.613220 351.043091,97.318672 
	C351.307281,97.228416 351.606567,97.302795 351.978882,97.625114 
z"/>
<path fill="#FFFFFF" opacity="1.000000" stroke="none" 
	d="
M229.931580,322.790070 
	C230.490799,322.716675 230.782776,322.865540 231.229065,323.482666 
	C230.810379,323.638092 230.237381,323.325226 229.931580,322.790070 
z"/>
<path fill="#FFFFFF" opacity="1.000000" stroke="none" 
	d="
M285.276520,323.892090 
	C285.236328,323.640289 285.492310,323.463226 285.960632,323.181427 
	C285.948975,323.338867 285.748871,323.635590 285.276520,323.892090 
z"/>
<path fill="#FFFFFF" opacity="1.000000" stroke="none" 
	d="
M287.276489,322.892090 
	C287.236328,322.640289 287.492310,322.463226 287.960632,322.181427 
	C287.948975,322.338867 287.748871,322.635590 287.276489,322.892090 
z"/>
<path fill="#FFFFFF" opacity="1.000000" stroke="none" 
	d="
M227.956360,322.304474 
	C228.141342,322.172394 228.421799,322.294037 229.106781,322.633148 
	C229.024811,322.753143 228.538330,322.655670 227.956360,322.304474 
z"/>
<path fill="#FFFFFF" opacity="1.000000" stroke="none" 
	d="
M231.765488,324.233826 
	C232.054016,324.007019 232.595276,324.057556 233.258575,324.529480 
	C232.926468,324.804291 232.472336,324.657715 231.765488,324.233826 
z"/>
<path fill="#FFFFFF" opacity="1.000000" stroke="none" 
	d="
M289.276672,321.892090 
	C289.236511,321.640320 289.492462,321.463257 289.960693,321.181427 
	C289.949066,321.338867 289.748993,321.635559 289.276672,321.892090 
z"/>
<path fill="#FEFFFA" opacity="1.000000" stroke="none" 
	d="
M347.255768,95.790108 
	C347.167236,96.129623 346.844177,96.216629 346.110046,96.016617 
	C346.139740,95.665588 346.580505,95.601593 347.255768,95.790108 
z"/>
<path fill="#FFFFFF" opacity="1.000000" stroke="none" 
	d="
M275.277069,328.892029 
	C275.236786,328.640289 275.492584,328.463196 275.960724,328.181458 
	C275.949158,328.338837 275.749207,328.635468 275.277069,328.892029 
z"/>
<path fill="#FFFFFF" opacity="1.000000" stroke="none" 
	d="
M277.276733,327.892059 
	C277.236572,327.640320 277.492462,327.463257 277.960632,327.181427 
	C277.949005,327.338837 277.748993,327.635529 277.276733,327.892059 
z"/>
<path fill="#FFFFFF" opacity="1.000000" stroke="none" 
	d="
M294.301086,319.035339 
	C294.289551,318.890350 294.537140,318.656250 294.955597,318.234558 
	C294.937744,318.346741 294.748993,318.646484 294.301086,319.035339 
z"/>
<path fill="#FFFFFF" opacity="1.000000" stroke="none" 
	d="
M241.765503,329.233826 
	C242.054062,329.007019 242.595322,329.057526 243.258530,329.529480 
	C242.926392,329.804321 242.472290,329.657745 241.765503,329.233826 
z"/>
<path fill="#FEFFFA" opacity="1.000000" stroke="none" 
	d="
M345.162231,95.072876 
	C344.960449,95.133278 344.779144,94.930504 344.307678,94.440872 
	C344.405884,94.372589 344.794281,94.591148 345.162231,95.072876 
z"/>
<path fill="#FFFFFF" opacity="1.000000" stroke="none" 
	d="
M243.765442,330.233826 
	C244.055603,330.005737 244.598480,330.055023 245.261017,330.527588 
	C244.926483,330.804352 244.472336,330.657776 243.765442,330.233826 
z"/>
<path fill="#FFFFFF" opacity="1.000000" stroke="none" 
	d="
M266.276550,332.892151 
	C266.236328,332.640320 266.492310,332.463257 266.960693,332.181458 
	C266.949036,332.338898 266.748901,332.635620 266.276550,332.892151 
z"/>
<path fill="#FFFFFF" opacity="1.000000" stroke="none" 
	d="
M249.956329,333.303589 
	C250.100067,333.243744 250.352936,333.413177 250.796204,333.706055 
	C250.664536,333.753052 250.357483,333.654175 249.956329,333.303589 
z"/>
<path fill="#FFFFFF" opacity="1.000000" stroke="none" 
	d="
M264.276550,333.892151 
	C264.236389,333.640381 264.492371,333.463318 264.960693,333.181458 
	C264.949066,333.338898 264.748962,333.635620 264.276550,333.892151 
z"/>
<path fill="#FFFFFF" opacity="1.000000" stroke="none" 
	d="
M251.956329,334.303589 
	C252.100052,334.243774 252.352905,334.413208 252.796188,334.706085 
	C252.664536,334.753052 252.357483,334.654144 251.956329,334.303589 
z"/>
<path fill="#FFFFFF" opacity="1.000000" stroke="none" 
	d="
M262.276550,334.892151 
	C262.236481,334.640472 262.492462,334.463409 262.960724,334.181488 
	C262.949036,334.338898 262.748932,334.635620 262.276550,334.892151 
z"/>
<path fill="#FFFFFF" opacity="1.000000" stroke="none" 
	d="
M328.277344,297.891968 
	C328.237030,297.640228 328.492798,297.463165 328.960815,297.181458 
	C328.949219,297.338776 328.749329,297.635406 328.277344,297.891968 
z"/>
<path fill="#FFFFFF" opacity="1.000000" stroke="none" 
	d="
M376.303589,235.043671 
	C376.243713,234.899918 376.413116,234.647049 376.706055,234.203781 
	C376.753052,234.335464 376.654175,234.642517 376.303589,235.043671 
z"/>
<path fill="#FFFFFF" opacity="1.000000" stroke="none" 
	d="
M378.303589,229.043671 
	C378.243805,228.899963 378.413239,228.647095 378.706085,228.203735 
	C378.753082,228.335388 378.654175,228.642471 378.303589,229.043671 
z"/>
<path fill="#FFFFFF" opacity="1.000000" stroke="none" 
	d="
M375.303589,238.043610 
	C375.243774,237.899887 375.413208,237.647034 375.706085,237.203766 
	C375.753052,237.335434 375.654144,237.642487 375.303589,238.043610 
z"/>
<path fill="#F7F8F6" opacity="1.000000" stroke="none" 
	d="
M140.082855,240.251205 
	C140.334503,240.206924 140.526215,240.409943 141.007324,240.908264 
	C140.872131,240.968567 140.447540,240.733551 140.082855,240.251205 
z"/>
<path fill="#FFFFFF" opacity="1.000000" stroke="none" 
	d="
M372.303558,245.043640 
	C372.243835,244.899948 372.413300,244.647110 372.706055,244.203812 
	C372.753021,244.335464 372.654114,244.642517 372.303558,245.043640 
z"/>
<path fill="#F7F8F6" opacity="1.000000" stroke="none" 
	d="
M144.031586,247.989532 
	C144.451462,247.954117 144.863724,248.301575 145.157379,249.073395 
	C144.700500,249.122650 144.362244,248.747528 144.031586,247.989532 
z"/>
<path fill="#F7F8F6" opacity="1.000000" stroke="none" 
	d="
M145.031586,249.989655 
	C145.450912,249.954544 145.862625,250.302277 146.156555,251.073883 
	C145.700500,251.122650 145.362244,250.747574 145.031586,249.989655 
z"/>
<path fill="#FFFFFF" opacity="1.000000" stroke="none" 
	d="
M349.303650,279.043610 
	C349.243713,278.899811 349.413177,278.646881 349.706085,278.203430 
	C349.753113,278.335114 349.654266,278.642273 349.303650,279.043610 
z"/>
<path fill="#FFFFFF" opacity="1.000000" stroke="none" 
	d="
M339.277069,288.892029 
	C339.236786,288.640289 339.492615,288.463196 339.960815,288.181458 
	C339.949188,288.338806 339.749207,288.635437 339.277069,288.892029 
z"/>
<path fill="#FFFFFF" opacity="1.000000" stroke="none" 
	d="
M332.277161,294.892029 
	C332.236816,294.640259 332.492645,294.463196 332.960815,294.181458 
	C332.949219,294.338806 332.749268,294.635437 332.277161,294.892029 
z"/>
<path fill="#FFFFFF" opacity="1.000000" stroke="none" 
	d="
M225.956329,321.303589 
	C226.100098,321.243713 226.352966,321.413116 226.796219,321.706055 
	C226.664536,321.753082 226.357483,321.654175 225.956329,321.303589 
z"/>
<path fill="#FFFFFF" opacity="1.000000" stroke="none" 
	d="
M324.277283,300.891968 
	C324.237000,300.640259 324.492767,300.463196 324.960815,300.181458 
	C324.949219,300.338776 324.749298,300.635376 324.277283,300.891968 
z"/>
<path fill="#F8F8F5" opacity="1.000000" stroke="none" 
	d="
M134.012741,208.494446 
	C133.807861,208.728897 133.499557,208.408020 132.830688,207.512207 
	C132.666672,206.779739 132.890793,206.710541 133.310776,206.812103 
	C133.622467,207.242706 133.765900,207.590912 134.012741,208.494446 
z"/>
<path fill="#FFFFFF" opacity="1.000000" stroke="none" 
	d="
M208.960388,312.303223 
	C209.115540,312.227081 209.368027,312.395081 209.800262,312.700562 
	C209.666565,312.750153 209.359131,312.653259 208.960388,312.303223 
z"/>
<path fill="#FFFFFF" opacity="1.000000" stroke="none" 
	d="
M210.960388,313.303162 
	C211.115509,313.227051 211.367905,313.395020 211.799927,313.700500 
	C211.666260,313.750122 211.358948,313.653168 210.960388,313.303162 
z"/>
<path fill="#FFFFFF" opacity="1.000000" stroke="none" 
	d="
M212.983063,314.332642 
	C213.167267,314.122559 213.467010,314.196442 214.211792,314.399536 
	C214.137421,314.557983 213.617996,314.587280 212.983063,314.332642 
z"/>
<path fill="#FFFFFF" opacity="1.000000" stroke="none" 
	d="
M215.865417,315.903381 
	C216.086655,315.847656 216.255661,316.056030 216.702362,316.555725 
	C216.591095,316.620544 216.202133,316.394012 215.865417,315.903381 
z"/>
<path fill="#FEFFFA" opacity="1.000000" stroke="none" 
	d="
M355.038086,98.693878 
	C354.868835,98.790504 354.615265,98.624908 354.195190,98.302856 
	C354.332031,98.249092 354.640411,98.344170 355.038086,98.693878 
z"/>
<path fill="#FFFFFF" opacity="1.000000" stroke="none" 
	d="
M377.303589,232.043671 
	C377.243805,231.899963 377.413239,231.647110 377.706085,231.203796 
	C377.753082,231.335464 377.654175,231.642517 377.303589,232.043671 
z"/>
<path fill="#FFFFFF" opacity="1.000000" stroke="none" 
	d="
M293.273743,319.894379 
	C293.232208,319.643341 293.482605,319.468414 293.943085,319.192200 
	C293.933807,319.350403 293.737976,319.643616 293.273743,319.894379 
z"/>
<path fill="#FFFFFF" opacity="1.000000" stroke="none" 
	d="
M223.956390,320.303528 
	C224.100143,320.243713 224.352951,320.413116 224.796082,320.706055 
	C224.664383,320.753052 224.357391,320.654144 223.956390,320.303528 
z"/>
<path fill="#FFFFFF" opacity="1.000000" stroke="none" 
	d="
M291.277313,320.891968 
	C291.236969,320.640198 291.492737,320.463104 291.960815,320.181396 
	C291.949249,320.338745 291.749329,320.635345 291.277313,320.891968 
z"/>
<path fill="#EDEDE9" opacity="1.000000" stroke="none" 
	d="
M190.077057,190.160294 
	C180.087067,190.392715 171.752457,194.528656 164.537994,201.153534 
	C157.438995,207.672379 153.642059,215.984375 152.305038,225.568024 
	C151.711609,225.561172 151.118164,225.554321 150.524719,225.547485 
	C149.048233,217.008331 146.482437,208.492691 146.297699,199.925690 
	C145.722885,173.272232 146.048859,146.599319 146.039597,119.933945 
	C146.039368,119.282066 146.204544,118.630112 146.211349,118.579727 
	C183.508148,108.638306 217.076416,90.190308 252.484879,76.451714 
	C255.856491,75.143509 258.652435,75.013809 261.982269,76.434456 
	C286.479492,86.885948 310.971375,97.356895 335.617004,107.450363 
	C345.861511,111.645958 356.477783,114.933701 367.828064,118.954147 
	C367.827484,118.946999 368.048492,120.399178 368.048859,121.851418 
	C368.055359,147.016495 368.307434,172.185699 367.927490,197.345261 
	C367.658325,215.170563 362.518372,231.777222 353.082825,246.979553 
	C352.556580,247.827393 352.006470,248.663635 351.410950,249.463150 
	C351.246704,249.683578 350.877777,249.751511 350.365540,250.008392 
	C349.947906,244.366684 349.931702,238.771362 349.052399,233.315140 
	C346.752197,219.042099 333.678802,207.489716 319.180481,207.022781 
	C308.526672,206.679672 297.843018,206.654022 287.190674,207.016495 
	C270.348480,207.589600 257.031860,221.167801 256.884888,238.041595 
	C256.667114,263.038696 256.838501,288.039154 256.844177,313.038177 
	C256.844574,314.824310 256.844238,316.610443 256.844238,318.478638 
	C248.395966,317.172791 247.250671,315.928284 247.243408,308.490112 
	C247.221115,285.657501 247.244507,262.824768 247.172333,239.992340 
	C247.135818,228.444427 250.783371,218.388916 259.102051,210.283600 
	C261.145386,208.292679 261.151520,206.906799 259.375336,204.880051 
	C251.407730,195.788559 241.557175,190.396149 229.384109,190.048584 
	C219.559921,189.768066 209.720749,190.012665 199.193375,190.050400 
	C198.498535,190.076492 198.045181,190.123581 198.045181,190.123596 
	C196.950104,190.080795 195.855026,190.037979 193.965912,190.016495 
	C192.140259,190.078644 191.108658,190.119461 190.077057,190.160294 
M332.087158,157.181274 
	C332.094757,155.684097 332.115448,154.186874 332.107758,152.689774 
	C332.071014,145.549866 332.325500,145.267548 340.349731,144.153717 
	C339.522400,150.812668 342.347595,157.483490 338.453949,164.037460 
	C337.186798,166.170380 337.451050,169.663269 338.079742,172.278137 
	C338.383636,173.542145 341.143738,174.933380 342.806824,174.952515 
	C344.496216,174.971954 347.449951,173.596039 347.656677,172.439209 
	C348.158600,169.630615 348.266876,166.109253 346.961578,163.741913 
	C343.210968,156.939590 345.615753,149.797577 344.872375,142.870255 
	C344.818848,142.371628 345.327332,141.601196 345.795685,141.290787 
	C350.345917,138.274933 347.259583,136.995453 344.537567,135.689438 
	C331.991669,129.670059 319.488190,123.556023 306.822784,117.798744 
	C304.920105,116.933876 301.907898,117.056778 299.974670,117.948792 
	C287.640045,123.640144 275.444458,129.635666 263.263763,135.653763 
	C261.964813,136.295532 261.057404,137.729767 259.968353,138.796371 
	C261.154663,139.790329 262.280334,140.872284 263.549286,141.746277 
	C264.349030,142.297119 265.331757,142.670975 266.286163,142.894318 
	C272.723572,144.400818 275.837341,148.046448 274.475769,154.923080 
	C274.239655,156.115570 274.880066,157.481644 274.945740,159.581497 
	C271.026947,172.171509 274.031097,183.018967 283.983063,191.453491 
	C293.560577,199.570618 304.651672,201.192474 316.071350,195.809708 
	C327.652893,190.350632 333.598999,180.916733 333.129974,167.908707 
	C333.011414,164.620773 332.292023,161.354492 332.087158,157.181274 
M241.564529,153.860611 
	C243.505280,135.682159 231.557159,119.224609 214.827118,117.032021 
	C197.762070,114.795525 181.714752,126.819374 179.099350,143.801926 
	C176.238907,162.375580 187.939423,178.885010 206.028549,181.799011 
	C222.400146,184.436340 238.316040,172.231155 241.564529,153.860611 
z"/>
<path fill="#F8F8F5" opacity="1.000000" stroke="none" 
	d="
M132.944901,190.500427 
	C132.397690,188.778244 131.555542,186.604202 131.492493,184.407791 
	C131.233780,175.394730 131.186523,166.374939 131.154907,157.357300 
	C131.152496,156.672256 131.880295,155.984634 132.556366,155.152405 
	C132.898758,166.683807 132.953476,178.361053 132.944901,190.500427 
z"/>
<path fill="#F8F8F5" opacity="1.000000" stroke="none" 
	d="
M132.908859,152.556763 
	C132.696289,150.424103 132.549011,147.851334 132.645737,145.140808 
	C132.917877,147.374252 132.946014,149.745453 132.908859,152.556763 
z"/>
<path fill="#F8F8F5" opacity="1.000000" stroke="none" 
	d="
M133.135956,115.607040 
	C132.978348,114.210266 132.895889,112.390411 133.067886,110.306259 
	C133.285263,111.755959 133.248199,113.469963 133.135956,115.607040 
z"/>
<path fill="#6BC19E" opacity="1.000000" stroke="none" 
	d="
M190.328339,190.326843 
	C191.108658,190.119461 192.140259,190.078644 193.558075,190.074188 
	C192.822739,190.238190 191.701187,190.365799 190.328339,190.326843 
z"/>
<path fill="#F8F8F5" opacity="1.000000" stroke="none" 
	d="
M133.869751,204.664490 
	C133.674210,204.389557 133.519455,203.782730 133.577393,203.090225 
	C133.830231,203.447220 133.870377,203.889908 133.869751,204.664490 
z"/>
<path fill="#F8F8F5" opacity="1.000000" stroke="none" 
	d="
M132.966827,142.600739 
	C132.801834,142.133331 132.703094,141.302170 132.764954,140.250946 
	C132.961395,140.766251 132.997238,141.501617 132.966827,142.600739 
z"/>
<path fill="#F2F1EF" opacity="1.000000" stroke="none" 
	d="
M237.676544,324.575806 
	C237.039902,324.772461 236.266418,324.721161 234.935074,324.479767 
	C235.431381,324.302368 236.485519,324.315094 237.676544,324.575806 
z"/>
<path fill="#F8F8F5" opacity="1.000000" stroke="none" 
	d="
M137.200073,223.781219 
	C136.975830,223.315063 136.719940,222.456024 136.593567,221.345551 
	C136.871521,221.858871 137.019958,222.623581 137.200073,223.781219 
z"/>
<path fill="#F8F8F5" opacity="1.000000" stroke="none" 
	d="
M138.618210,227.795990 
	C138.405441,227.752426 138.153381,227.504425 137.962189,227.121765 
	C138.275757,227.126617 138.461044,227.328094 138.618210,227.795990 
z"/>
<path fill="#F8F8F5" opacity="1.000000" stroke="none" 
	d="
M132.966446,131.750519 
	C132.819901,131.693314 132.718170,131.387192 132.779419,131.040787 
	C132.965347,131.167542 132.988297,131.334579 132.966446,131.750519 
z"/>
<path fill="#F2F1EF" opacity="1.000000" stroke="none" 
	d="
M245.530548,328.831116 
	C245.289490,328.866699 245.198532,328.768646 245.107590,328.670624 
	C245.298615,328.679596 245.489639,328.688538 245.530548,328.831116 
z"/>
<path fill="#6BC19E" opacity="1.000000" stroke="none" 
	d="
M198.150452,190.193756 
	C198.045181,190.123581 198.498535,190.076492 198.724487,190.106140 
	C198.950424,190.135773 198.616867,190.304199 198.616867,190.304199 
	C198.616867,190.304199 198.255722,190.263931 198.150452,190.193756 
z"/>
<path fill="#F8F8F5" opacity="1.000000" stroke="none" 
	d="
M132.368927,120.417389 
	C132.253372,120.188782 132.455658,119.826744 132.851257,119.220245 
	C132.925308,119.411842 132.806030,119.847900 132.368927,120.417389 
z"/>
<path fill="#7BC7A8" opacity="1.000000" stroke="none" 
	d="
M241.466812,154.279282 
	C238.316040,172.231155 222.400146,184.436340 206.028549,181.799011 
	C187.939423,178.885010 176.238907,162.375580 179.099350,143.801926 
	C181.714752,126.819374 197.762070,114.795525 214.827118,117.032021 
	C231.557159,119.224609 243.505280,135.682159 241.466812,154.279282 
z"/>
<path fill="#475656" opacity="1.000000" stroke="none" 
	d="
M275.115601,158.767548 
	C274.880066,157.481644 274.239655,156.115570 274.475769,154.923080 
	C275.837341,148.046448 272.723572,144.400818 266.286163,142.894318 
	C265.331757,142.670975 264.349030,142.297119 263.549286,141.746277 
	C262.280334,140.872284 261.154663,139.790329 259.968353,138.796371 
	C261.057404,137.729767 261.964813,136.295532 263.263763,135.653763 
	C275.444458,129.635666 287.640045,123.640144 299.974670,117.948792 
	C301.907898,117.056778 304.920105,116.933876 306.822784,117.798744 
	C319.488190,123.556023 331.991669,129.670059 344.537567,135.689438 
	C347.259583,136.995453 350.345917,138.274933 345.795685,141.290787 
	C345.327332,141.601196 344.818848,142.371628 344.872375,142.870255 
	C345.615753,149.797577 343.210968,156.939590 346.961578,163.741913 
	C348.266876,166.109253 348.158600,169.630615 347.656677,172.439209 
	C347.449951,173.596039 344.496216,174.971954 342.806824,174.952515 
	C341.143738,174.933380 338.383636,173.542145 338.079742,172.278137 
	C337.451050,169.663269 337.186798,166.170380 338.453949,164.037460 
	C342.347595,157.483490 339.522400,150.812668 340.349731,144.153717 
	C332.325500,145.267548 332.071014,145.549866 332.107758,152.689774 
	C332.115448,154.186874 332.094757,155.684097 331.656158,157.698792 
	C329.994263,158.037506 328.626648,158.146072 327.553619,157.635513 
	C316.702118,152.472351 305.329926,150.579529 293.573120,153.038498 
	C287.295807,154.351440 281.260254,156.820358 275.115601,158.767548 
z"/>
<path fill="#7BC6A8" opacity="1.000000" stroke="none" 
	d="
M275.030670,159.174530 
	C281.260254,156.820358 287.295807,154.351440 293.573120,153.038498 
	C305.329926,150.579529 316.702118,152.472351 327.553619,157.635513 
	C328.626648,158.146072 329.994263,158.037506 331.536926,158.147278 
	C332.292023,161.354492 333.011414,164.620773 333.129974,167.908707 
	C333.598999,180.916733 327.652893,190.350632 316.071350,195.809708 
	C304.651672,201.192474 293.560577,199.570618 283.983063,191.453491 
	C274.031097,183.018967 271.026947,172.171509 275.030670,159.174530 
z"/>
</svg>